<?xml version="1.0" encoding="utf-8"?>
<!-- Generator: Adobe Illustrator 18.0.0, SVG Export Plug-In . SVG Version: 6.00 Build 0)  -->
<!DOCTYPE svg PUBLIC "-//W3C//DTD SVG 1.1//EN" "http://www.w3.org/Graphics/SVG/1.1/DTD/svg11.dtd">
<svg version="1.1" id="Layer_1" xmlns="http://www.w3.org/2000/svg" xmlns:xlink="http://www.w3.org/1999/xlink" x="0px" y="0px"
	 viewBox="0 0 132.8 228.4" enable-background="new 0 0 132.8 228.4" xml:space="preserve">
<g>
	<g>
		<path fill="#1AA3DE" d="M90.5,32.9c0.8,0.6,2.3,1.5,3.2,2.1s2.3,1.3,2.9,1.6c0.7,0.3,1.5,0.5,1.8,0.5s1.1-0.2,1.7-0.5
			s2-0.9,3.1-1.4c1.1-0.5,3.5-1.7,5.2-2.6c1.8-0.9,4.3-2.3,5.6-3.1s2.6-1.6,2.9-1.9c0.3-0.3,0.5-0.8,0.5-1c0-0.3,0-0.7,0-1
			s-0.2-0.7-0.5-1c-0.3-0.3-1-1-1.6-1.6c-0.6-0.6-2.2-1.9-3.6-3c-1.4-1.1-4.4-3.1-6.7-4.4s-5.7-3.1-7.6-4s-5.4-2.1-7.7-2.8
			C87.5,8.1,83.5,7.3,81,7c-2.5-0.3-6.1-0.6-7.9-0.7s-5.2,0-7.5,0.2c-2.3,0.2-6.1,0.9-8.5,1.6c-2.3,0.7-6.3,2.2-8.9,3.4
			c-2.6,1.2-6.4,3.3-8.5,4.7c-2.1,1.4-5.4,3.9-7.3,5.5c-1.9,1.6-4.8,4.7-6.5,6.8c-1.7,2.1-4.1,5.2-5.4,7s-3,4.6-3.8,6.2
			c-0.8,1.7-1.9,4.5-2.4,6.3c-0.5,1.8-1.3,4.6-1.7,6.3s-1,5.5-1.4,8.4s-0.9,9.9-1.2,15.4l-2,45.3c-0.2,5.5-0.5,10.8-0.5,11.8
			s0.1,2.1,0.3,2.5c0.2,0.4,0.9,1.1,1.4,1.6c0.5,0.4,1.7,0.8,2.5,0.8s2.3-0.2,3.3-0.3s3.3-0.5,5.1-0.7c1.8-0.2,7.8-1.1,13.2-2l1-0.2
			c5.4-0.9,14.3-2.2,19.8-3l8.3-1.2c5.4-0.8,13.7-2.2,18.4-3c4.7-0.9,10.3-2.1,12.5-2.8c2.2-0.7,5.5-2.1,7.4-3.1
			c1.9-1,4.8-2.8,6.5-4s4.7-3.4,6.6-5c1.9-1.5,5-4,6.8-5.4s3.9-3.2,4.6-3.9c0.7-0.7,1.5-1.6,1.7-2c0.2-0.4,0.2-1.3,0.1-2
			s-1.4-1.8-2.7-2.5c-1.3-0.7-3.3-1.8-4.3-2.5c-1.1-0.7-2.8-1.7-3.9-2.3c-1.1-0.6-2.6-1.5-3.3-2c-0.8-0.5-1.9-1.2-2.4-1.5
			c-0.5-0.3-1.4-0.8-1.9-0.9c-0.5-0.2-1.3-0.1-1.7,0.1s-1.2,0.9-1.6,1.4c-0.4,0.5-1.1,1.4-1.6,2c-0.4,0.5-1.7,1.9-2.7,3
			s-2.9,2.8-4.1,3.8c-1.2,1-3.1,2.3-4.3,3c-1.2,0.7-3.4,1.7-4.7,2.2c-1.4,0.6-4.1,1.3-6,1.7c-1.9,0.4-5,0.7-6.9,0.8
			c-1.9,0.1-5.3,0-7.6-0.3s-5.9-1.2-8.1-2c-2.2-0.9-5.3-2.5-7-3.5c-1.7-1.1-4.2-2.9-5.5-4.2c-1.3-1.2-3.7-3.8-5.2-5.7
			s-3.5-5.1-4.4-7.1s-1.9-5.4-2.3-7.7c-0.4-2.3-0.7-6.1-0.7-8.5c0-2.4,0.3-6.3,0.8-8.7c0.4-2.4,1.5-5.8,2.4-7.5
			c0.9-1.8,2.5-4.6,3.7-6.3c1.2-1.7,3.5-4.3,5.1-5.9c1.6-1.6,4.4-3.8,6.2-5.1c1.8-1.2,4.8-2.8,6.7-3.4c1.9-0.7,4.9-1.5,6.8-1.8
			c1.8-0.3,5-0.7,7-0.7s5.4,0.1,7.6,0.3c2.2,0.2,5.1,0.9,6.4,1.4C87.9,31.5,89.7,32.4,90.5,32.9z"/>
	</g>
</g>
<text transform="matrix(1 0 0 1 3.5708 192.455)" fill="#010202" font-family="'HelveticaNeue'" font-size="39">CAMIO</text>
<text transform="matrix(1 0 0 1 4.5706 220.7764)" fill="#010202" font-family="'HelveticaNeue'" font-size="22">by Freterium</text>
</svg>
